HIERARCHY
ROOT Hips
{
	OFFSET 0.00 0.00 0.00
	CHANNELS 6 Xposition Yposition Zposition Xrotation Yrotation Zrotation
	JOINT LeftUpLeg
	{
		OFFSET 3.64953 0.00000 0.00000
		CHANNELS 3 Xrotation Yrotation Zrotation
		JOINT LeftLeg
		{
			OFFSET 0.00000 -15.70580 0.00000
			CHANNELS 3 Xrotation Yrotation Zrotation
			JOINT LeftFoot
			{
				OFFSET 0.00000 -15.41867 0.00000
				CHANNELS 3 Xrotation Yrotation Zrotation
				JOINT LeftToeBase
				{
					OFFSET 0.00000 -1.53543 5.73033
					CHANNELS 3 Xrotation Yrotation Zrotation
					End Site
					{
						OFFSET 0.00000 0.00000 2.95275
					}
				}
			}
		}
	}
	JOINT RightUpLeg
	{
		OFFSET -3.64953 0.00000 0.00000
		CHANNELS 3 Xrotation Yrotation Zrotation
		JOINT RightLeg
		{
			OFFSET 0.00000 -15.70580 0.00000
			CHANNELS 3 Xrotation Yrotation Zrotation
			JOINT RightFoot
			{
				OFFSET 0.00000 -15.41867 0.00000
				CHANNELS 3 Xrotation Yrotation Zrotation
				JOINT RightToeBase
				{
					OFFSET 0.00000 -1.53543 5.73033
					CHANNELS 3 Xrotation Yrotation Zrotation
					End Site
					{
						OFFSET 0.00000 0.00000 2.95275
					}
				}
			}
		}
	}
	JOINT Spine
	{
		OFFSET 0.00000 0.03937 0.00000
		CHANNELS 3 Xrotation Yrotation Zrotation
		JOINT Spine1
		{
			OFFSET 0.00000 10.24829 0.00000
			CHANNELS 3 Xrotation Yrotation Zrotation
			JOINT Neck
			{
				OFFSET 0.00000 7.82687 0.00000
				CHANNELS 3 Xrotation Yrotation Zrotation
				JOINT Head
				{
					OFFSET 0.00000 6.90715 0.00000
					CHANNELS 3 Xrotation Yrotation Zrotation
					End Site
					{
						OFFSET 0.00000 4.52755 0.00000
					}
				}
			}
			JOINT LeftShoulder
			{
				OFFSET 0.00000 7.82687 0.00000
				CHANNELS 3 Xrotation Yrotation Zrotation
				JOINT LeftArm
				{
					OFFSET 6.71018 -0.00002 0.00000
					CHANNELS 3 Xrotation Yrotation Zrotation
					JOINT LeftForeArm
					{
						OFFSET 10.94419 -0.00004 0.00000
						CHANNELS 3 Xrotation Yrotation Zrotation
						JOINT LeftHand
						{
							OFFSET 8.52010 -0.00003 0.00000
							CHANNELS 3 Xrotation Yrotation Zrotation
							JOINT LeftHandThumb
							{
								OFFSET 0.00000 0.00000 0.00000
								CHANNELS 3 Xrotation Yrotation Zrotation
								End Site
								{
									OFFSET 0.00000 0.00000 3.93700
								}
							}
							JOINT L_Wrist_End
							{
								OFFSET 3.93700 -0.00001 0.00000
								CHANNELS 3 Xrotation Yrotation Zrotation
							}
						}
					}
				}
			}
			JOINT RightShoulder
			{
				OFFSET 0.00000 7.82687 0.00000
				CHANNELS 3 Xrotation Yrotation Zrotation
				JOINT RightArm
				{
					OFFSET -6.71018 -0.00002 0.00000
					CHANNELS 3 Xrotation Yrotation Zrotation
					JOINT RightForeArm
					{
						OFFSET -10.94419 -0.00004 0.00000
						CHANNELS 3 Xrotation Yrotation Zrotation
						JOINT RightHand
						{
							OFFSET -8.52010 -0.00003 0.00000
							CHANNELS 3 Xrotation Yrotation Zrotation
							JOINT RightHandThumb
							{
								OFFSET 0.00000 0.00000 0.00000
								CHANNELS 3 Xrotation Yrotation Zrotation
								End Site
								{
									OFFSET 0.00000 0.00000 3.93700
								}
							}
							JOINT R_Wrist_End
							{
								OFFSET -5.39369 -0.00002 0.00000
								CHANNELS 3 Xrotation Yrotation Zrotation
							}
						}
					}
				}
			}
		}
	}
}
MOTION
Frames: 9
Frame Time: 0.008333
 108.9021 32.0821 -65.2178 179.4816 -45.4702 176.5810 1.7628 -10.5245 5.7008 49.9917 -0.0000 0.0000 -12.6607 -15.5484 -6.3814 -7.3709 -0.0000 -0.0000 -20.1554 -1.7883 -2.7492 21.9884 0.0000 0.0000 -13.8658 4.8611 7.2245 2.9934 0.0000 0.0000 -8.4213 2.1572 0.6120 10.1268 0.9717 0.3685 2.2848 1.3185 -4.6961 5.5767 -1.1605 4.9781 20.4845 10.8586 -6.0246 -40.9909 -52.1699 -86.6162 -0.0000 -6.9681 -0.0000 -3.5736 -12.0100 -18.1793 0.0000 -0.0000 0.0000 0.0000 -0.0000 0.0000 15.2120 -16.5348 4.5419 4.2576 27.6934 68.0856 -0.0000 1.9014 0.0000 -25.1932 -5.8381 9.7371 -0.0000 0.0000 -0.0000 -0.0000 0.0000 -0.0000
 108.8099 32.1340 -65.5044 -179.5722 -45.4063 177.1834 0.4528 -10.2279 5.6020 53.7351 -0.0000 0.0000 -10.5774 -14.3888 -6.7643 -6.1445 -0.0000 -0.0000 -18.9437 -2.3063 -2.4726 21.8707 -0.0000 0.0000 -14.1506 5.5363 6.7677 3.1418 -0.0000 -0.0000 -7.7277 2.1909 0.7849 10.1708 0.9869 0.3720 2.4713 1.4075 -4.7732 4.9057 -0.8803 4.8105 19.8762 10.9610 -5.4207 -38.7882 -48.8684 -86.1364 -0.0000 -5.8721 -0.0000 -1.9613 -9.9890 -17.1091 -0.0000 0.0000 -0.0000 -0.0000 0.0000 -0.0000 15.2865 -16.5075 4.1414 3.0779 29.8949 68.5186 -0.0000 1.2433 0.0000 -23.4216 -6.2012 9.6205 -0.0000 -0.0000 -0.0000 -0.0000 -0.0000 -0.0000
 108.7315 32.1886 -65.7766 -179.1761 -45.3500 177.4439 -1.4944 -9.8363 5.4876 57.7313 -0.0000 0.0000 -8.9855 -13.7784 -7.3357 -1.6292 -0.0000 -0.0000 -18.0821 -2.3428 -2.1696 21.6497 -0.0000 0.0000 -14.3392 5.7333 6.2172 3.0316 -0.0000 -0.0000 -7.3900 2.3547 0.8349 10.1992 1.1719 0.4982 2.6578 1.4129 -4.8769 4.4394 -0.8138 4.7511 19.6952 10.8899 -5.0774 -37.3721 -46.2227 -85.7681 -0.0000 -4.2154 -0.0000 -0.7333 -9.0320 -16.4984 0.0000 -0.0000 0.0000 0.0000 -0.0000 0.0000 15.1166 -16.4968 3.7741 1.9525 30.8580 69.0147 -0.0000 1.1189 0.0000 -22.6143 -6.4294 8.9448 -0.0000 0.0000 0.0000 -0.0000 0.0000 0.0000
 108.6512 32.2334 -66.0124 -179.0919 -45.4995 177.5408 -3.8286 -9.8624 5.1977 61.7919 0.0000 0.0000 -8.1154 -12.9650 -8.8120 6.6559 -0.0000 0.0000 -17.1769 -2.3678 -1.9899 20.8675 -0.0000 -0.0000 -14.5859 5.4966 6.5409 3.2448 0.0000 -0.0000 -7.1326 2.3609 0.9356 10.1563 1.1583 0.4858 2.6711 1.4381 -4.9851 4.3565 -0.7982 4.7650 19.8713 10.9943 -5.0006 -36.6500 -44.7268 -85.5252 -0.0000 -2.1743 -0.0000 -0.3266 -7.0458 -15.0803 -0.0000 0.0000 -0.0000 -0.0000 0.0000 -0.0000 14.5999 -16.3837 3.2939 1.1612 31.9305 69.5297 -0.0000 1.2256 0.0000 -20.7213 -7.2142 8.7808 -0.0000 0.0000 0.0000 -0.0000 0.0000 0.0000
 108.5725 32.2850 -66.2666 -178.9530 -45.7145 177.5762 -6.1507 -9.6875 5.0977 65.8046 -0.0000 0.0000 -7.3452 -13.0225 -7.8888 14.2024 -0.0000 0.0000 -16.0507 -2.0751 -1.6410 19.8361 0.0000 0.0000 -14.6536 4.8969 6.7079 3.3140 -0.0000 0.0000 -6.9449 2.3888 1.0828 10.1882 1.1701 0.5048 2.6999 1.4770 -5.1232 4.2552 -0.7661 4.8317 19.9047 10.9149 -4.8315 -35.2363 -42.4696 -84.7661 -0.0000 -1.1446 -0.0000 0.0097 -4.8697 -14.4879 0.0000 -0.0000 0.0000 0.0000 -0.0000 0.0000 14.5067 -16.2226 3.0634 -0.0087 32.4058 69.9922 -0.0000 1.6171 0.0000 -20.0383 -7.5065 8.0971 0.0000 0.0000 -0.0000 0.0000 0.0000 -0.0000
 108.5090 32.3311 -66.5450 -178.6028 -46.2044 177.4201 -8.2808 -9.7339 5.3873 69.9041 -0.0000 0.0000 -7.0572 -13.7180 -5.7197 16.3188 0.0000 0.0000 -14.7252 -2.0939 -0.9622 18.8173 0.0000 0.0000 -14.6727 4.2818 6.5115 3.2500 0.0000 0.0000 -6.7497 2.3093 1.4018 10.4469 1.0647 0.5970 2.8304 1.4158 -5.0670 3.7181 -0.7287 4.7135 19.6907 10.9528 -4.5634 -33.7986 -41.3689 -84.0999 0.0000 0.0819 -0.0000 -0.1692 -3.3602 -13.2852 -0.0000 0.0000 -0.0000 -0.0000 0.0000 -0.0000 14.3371 -16.1197 2.9290 -1.1947 32.7620 70.4455 -0.0000 2.1962 0.0000 -19.4771 -7.6335 7.5946 0.0000 -0.0000 0.0000 0.0000 -0.0000 0.0000
 108.4270 32.3812 -66.7707 -178.4949 -46.9457 177.5234 -10.7304 -10.3460 4.9235 73.8100 -0.0000 0.0000 -7.4389 -13.9656 -5.4057 15.7504 -0.0000 -0.0000 -13.7787 -2.6738 -0.9163 18.1470 0.0000 -0.0000 -14.9007 4.0836 6.2915 3.1920 0.0000 -0.0000 -6.5178 2.3091 1.4411 10.4363 1.0525 0.6066 2.9001 1.1685 -4.9986 3.5430 -0.8896 4.6009 20.0821 10.7483 -4.7107 -32.7540 -41.8103 -83.1057 0.0000 1.4717 -0.0000 -1.1774 -2.2925 -12.1806 0.0000 0.0000 -0.0000 0.0000 0.0000 -0.0000 14.1470 -16.1970 3.0021 -2.2217 32.3468 70.6919 -0.0000 2.9478 0.0000 -19.1818 -7.5129 7.2094 0.0000 -0.0000 0.0000 0.0000 -0.0000 0.0000
 108.3442 32.4340 -66.9927 -178.4822 -47.6467 177.5443 -13.2716 -10.8306 4.4581 77.5387 -0.0000 0.0000 -8.0308 -13.6724 -5.7998 11.6708 0.0000 0.0000 -12.9159 -3.5623 -0.9060 17.4813 0.0000 -0.0000 -15.1418 4.2156 6.3362 3.2339 -0.0000 0.0000 -6.4170 2.3129 1.4560 10.5714 1.0562 0.6412 2.8295 0.9917 -4.9366 3.4325 -1.0426 4.5680 20.2065 10.6170 -4.7882 -31.9857 -41.8246 -82.3546 0.0000 3.2346 -0.0000 -1.7434 -1.1759 -12.2043 -0.0000 0.0000 0.0000 -0.0000 0.0000 0.0000 13.8981 -16.2120 3.1894 -2.9748 32.3176 70.6692 -0.0000 4.2511 0.0000 -17.5713 -9.1009 7.8857 -0.0000 0.0000 0.0000 -0.0000 0.0000 0.0000
 108.2619 32.4871 -67.2271 -178.3980 -47.6824 177.6445 -15.6023 -10.4961 4.1590 81.0793 -0.0000 -0.0000 -8.3357 -13.9253 -4.9962 10.1367 -0.0000 -0.0000 -12.1944 -3.8549 -0.7585 17.0384 0.0000 -0.0000 -15.2617 4.4458 6.1657 2.9756 -0.0000 0.0000 -6.3447 2.5862 1.5008 10.7557 1.3330 0.6484 2.8519 0.8571 -4.9348 3.1302 -1.1390 4.5522 20.2648 10.7004 -4.9346 -30.6518 -42.1795 -81.2209 0.0000 4.0960 -0.0000 -2.3742 0.1824 -12.4409 -0.0000 -0.0000 -0.0000 -0.0000 -0.0000 -0.0000 13.7124 -15.9275 3.2320 -3.8114 32.0586 70.8209 -0.0000 5.1522 0.0000 -17.8379 -8.7687 7.9518 0.0000 0.0000 -0.0000 0.0000 0.0000 -0.0000
